#!OML:ASF E:\Steps\Project 1\Capture day 1\Session 2\Subject.ASF
:FULLY-SPECIFIED
:DEGREES
132
root 16.9646 17.9633 20.7717 -156.432 -4.65459 177.886
lowerback -27.6684 -2.15092 -6.27944
upperback 0.435049 -1.18739 0.42285
thorax 15.4033 -1.15899 3.41047
lowerneck -6.28875 -0.471238 -0.0447289
upperneck 12.971 -1.23697 1.98689
head 4.94038 -0.62106 0.535013
rclavicle -1.68967e-015 -1.6201e-014
rhumerus -37.7386 -20.9364 -76.2719
rradius 32.7263
rwrist -2.07374
rhand -5.83376 -52.7509
rfingers 7.12502
rthumb 19.9922 -81.7425
lclavicle -1.68967e-015 -1.6201e-014
lhumerus -31.5765 4.67964 81.2319
lradius 25.7294
lwrist -3.31179
lhand -20.7928 -13.1595
lfingers 7.12502
lthumb 5.57438 16.7472
rfemur -21.0787 4.92451 22.1133
rtibia 8.38517
rfoot -19.8731 -1.06569
rtoes -9.18113
lfemur -23.8092 -10.3939 -20.8635
ltibia 14.9465
lfoot -9.89096 -2.57443
ltoes 2.54706
133
root 16.9663 17.9634 20.7717 -156.456 -4.64446 177.932
lowerback -27.6491 -2.12143 -6.21028
upperback 0.464093 -1.17113 0.450806
thorax 15.427 -1.14714 3.41072
lowerneck -6.05135 -0.36007 -0.301678
upperneck 12.8323 -1.09222 2.26686
head 4.85823 -0.548395 0.673373
rclavicle -3.03147e-015 4.37326e-015
rhumerus -37.7874 -20.7835 -76.2546
rradius 32.7625
rwrist -2.22613
rhand -5.84671 -51.8248
rfingers 7.12502
rthumb 19.9797 -80.8176
lclavicle -3.03147e-015 4.37326e-015
lhumerus -31.6347 4.54362 81.3185
lradius 25.8333
lwrist -3.1335
lhand -20.8433 -12.9709
lfingers 7.12502
lthumb 5.52569 16.9371
rfemur -21.1206 5.01296 22.1637
rtibia 8.48774
rfoot -19.8722 -1.14948
rtoes -8.97185
lfemur -23.8746 -10.3619 -20.808
ltibia 15.1303
lfoot -9.92292 -2.68471
ltoes 2.71383
134
root 16.9659 17.9628 20.7668 -156.526 -4.56174 177.985
lowerback -27.6271 -2.02026 -6.07599
upperback 0.47347 -1.07463 0.407064
thorax 15.4144 -1.09179 3.32775
lowerneck -5.64146 -0.116996 -0.610024
upperneck 12.5954 -0.781348 2.68872
head 4.71382 -0.391174 0.873117
rclavicle -4.19933e-015 1.49089e-015
rhumerus -37.9848 -20.836 -76.1995
rradius 32.786
rwrist -2.22592
rhand -5.9583 -51.7158
rfingers 7.12502
rthumb 19.8724 -80.7198
lclavicle -4.19933e-015 1.49089e-015
lhumerus -31.7462 4.35036 81.3296
lradius 25.9077
lwrist -3.12326
lhand -20.7859 -12.8666
lfingers 7.12502
lthumb 5.58103 17.0399
rfemur -21.0811 5.1498 22.2028
rtibia 8.55286
rfoot -19.9132 -1.19632
rtoes -9.52156
lfemur -23.8477 -10.4868 -20.7488
ltibia 15.3155
lfoot -10.0878 -2.36902
ltoes 1.64543
135
root 16.9649 17.9608 20.7613 -156.619 -4.44948 178.055
lowerback -27.5522 -1.90081 -5.88034
upperback 0.482649 -0.97042 0.321413
thorax 15.374 -1.02566 3.16908
lowerneck -5.49741 -0.000644372 -0.561913
upperneck 12.648 -0.653239 2.78004
head 4.70351 -0.326126 0.900525
rclavicle 8.92046e-015 1.39149e-014
rhumerus -38.1576 -21.0731 -76.1586
rradius 32.7809
rwrist -2.14079
rhand -5.93824 -52.4631
rfingers 7.12502
rthumb 19.8917 -81.4651
lclavicle 8.92046e-015 1.39149e-014
lhumerus -31.7719 4.22779 81.2553
lradius 25.9082
lwrist -3.1595
lhand -20.7842 -12.8293
lfingers 7.12502
lthumb 5.58271 17.0772
rfemur -20.9799 5.23555 22.2715
rtibia 8.5368
rfoot -19.8561 -1.15102
rtoes -9.82492
lfemur -23.8072 -10.5323 -20.7003
ltibia 15.5142
lfoot -10.3364 -2.01171
ltoes 0.352939
136
root 16.9664 17.9585 20.7576 -156.659 -4.43831 178.104
lowerback -27.4814 -1.89921 -5.78677
upperback 0.479791 -1.00473 0.342787
thorax 15.3398 -1.03289 3.12944
lowerneck -5.6064 -0.01401 -0.33579
upperneck 12.8235 -0.665082 2.47349
head 4.77493 -0.339506 0.768062
rclavicle -9.08197e-015 4.07509e-015
rhumerus -38.2732 -21.0774 -76.0986
rradius 32.8169
rwrist -2.15367
rhand -5.91572 -52.6526
rfingers 7.12502
rthumb 19.9134 -81.6524
lclavicle -9.08197e-015 4.07509e-015
lhumerus -31.8033 4.36213 81.2373
lradius 25.8614
lwrist -3.21561
lhand -20.8157 -13.0293
lfingers 7.12502
lthumb 5.55226 16.8779
rfemur -20.9 5.23254 22.3484
rtibia 8.48692
rfoot -19.8409 -1.18002
rtoes -9.91978
lfemur -23.8156 -10.4868 -20.6486
ltibia 15.6307
lfoot -10.4081 -2.071
ltoes 0.315423
137
root 16.9702 17.9584 20.7518 -156.757 -4.5402 178.127
lowerback -27.3561 -1.96123 -5.76465
upperback 0.486932 -1.10461 0.393874
thorax 15.299 -1.07479 3.13725
lowerneck -5.61059 0.0159353 -0.295707
upperneck 12.8437 -0.617246 2.38003
head 4.7808 -0.319694 0.735383
rclavicle 7.91411e-015 1.3418e-014
rhumerus -38.4604 -20.8953 -76.0646
rradius 32.9325
rwrist -2.22311
rhand -5.95781 -52.6989
rfingers 7.12502
rthumb 19.8729 -81.7028
lclavicle 7.91411e-015 1.3418e-014
lhumerus -31.8737 4.42164 81.2562
lradius 25.8222
lwrist -3.23133
lhand -20.8065 -12.9354
lfingers 7.12502
lthumb 5.5612 16.9717
rfemur -20.7754 5.34057 22.4064
rtibia 8.54676
rfoot -20.0463 -1.50709
rtoes -10.4955
lfemur -23.7118 -10.4632 -20.604
ltibia 15.6328
lfoot -10.3264 -2.40835
ltoes 1.44893
138
root 16.9732 17.9587 20.7446 -156.862 -4.58296 178.172
lowerback -27.2615 -1.96401 -5.65557
upperback 0.50823 -1.14231 0.382288
thorax 15.2805 -1.08083 3.05245
lowerneck -5.49053 0.0454346 -0.407962
upperneck 12.842 -0.595317 2.55533
head 4.76019 -0.307599 0.809071
rclavicle -4.16205e-015 -9.74045e-015
rhumerus -38.6061 -20.8142 -76.0624
rradius 32.9723
rwrist -2.23748
rhand -5.93799 -51.2931
rfingers 7.12502
rthumb 19.892 -80.2951
lclavicle -4.16205e-015 -9.74045e-015
lhumerus -31.8994 4.39516 81.2034
lradius 25.7502
lwrist -3.28605
lhand -20.8379 -12.8527
lfingers 7.12502
lthumb 5.5309 17.0551
rfemur -20.6799 5.43252 22.4949
rtibia 8.67286
rfoot -20.2336 -1.66619
rtoes -11.1319
lfemur -23.5689 -10.4062 -20.5614
ltibia 15.5871
lfoot -10.272 -2.46344
ltoes 1.16043
139
root 16.9745 17.9583 20.7389 -156.877 -4.57328 178.206
lowerback -27.2419 -1.9638 -5.53224
upperback 0.508665 -1.1815 0.377536
thorax 15.2736 -1.08818 2.965
lowerneck -5.41987 0.0626974 -0.444936
upperneck 12.9644 -0.580809 2.53968
head 4.78557 -0.307647 0.811004
rclavicle -7.00716e-015 -1.46107e-014
rhumerus -38.5756 -20.8291 -76.0292
rradius 32.8174
rwrist -2.25996
rhand -6.11832 -46.2955
rfingers 7.12502
rthumb 19.7186 -75.3154
lclavicle -7.00716e-015 -1.46107e-014
lhumerus -31.9561 4.51682 81.1351
lradius 25.6787
lwrist -3.38975
lhand -20.9433 -12.8473
lfingers 7.12502
lthumb 5.42907 17.0631
rfemur -20.6719 5.48626 22.5491
rtibia 8.71327
rfoot -20.2353 -1.59432
rtoes -10.7622
lfemur -23.5649 -10.3402 -20.5385
ltibia 15.6347
lfoot -10.2968 -2.29005
ltoes -0.169374
140
root 16.973 17.9604 20.7319 -156.994 -4.55106 178.227
lowerback -27.1293 -1.9385 -5.43721
upperback 0.527779 -1.17935 0.372843
thorax 15.24 -1.07752 2.9113
lowerneck -5.43637 0.0747048 -0.308849
upperneck 13.1556 -0.572553 2.36594
head 4.84648 -0.310994 0.735271
rclavicle -1.49834e-014 3.97569e-015
rhumerus -38.544 -20.8621 -75.9866
rradius 32.668
rwrist -2.31957
rhand -6.37604 -51.5045
rfingers 7.12502
rthumb 19.4708 -80.5496
lclavicle -1.49834e-014 3.97569e-015
lhumerus -32.045 4.52659 81.1222
lradius 25.6327
lwrist -3.4154
lhand -20.9633 -12.6562
lfingers 7.12502
lthumb 5.40982 17.2547
rfemur -20.5651 5.56796 22.5511
rtibia 8.77254
rfoot -20.2549 -1.57356
rtoes -10.1448
lfemur -23.4229 -10.3503 -20.5553
ltibia 15.6715
lfoot -10.3361 -2.13407
ltoes -1.00881
